<?xml version="1.0" encoding="UTF-8" standalone="no"?>
<!DOCTYPE svg PUBLIC "-//W3C//DTD SVG 1.1//EN"
 "http://www.w3.org/Graphics/SVG/1.1/DTD/svg11.dtd">
<!-- Generated by graphviz version 2.40.1 (0)
 -->
<!-- Title: Demand Pages: 1 -->
<svg width="687pt" height="404pt"
 viewBox="0.00 0.00 686.50 404.00" xmlns="http://www.w3.org/2000/svg" xmlns:xlink="http://www.w3.org/1999/xlink">
<g id="graph0" class="graph" transform="scale(1 1) rotate(0) translate(4 400)">
<title>Demand</title>
<polygon fill="#ffffff" stroke="transparent" points="-4,4 -4,-400 682.5,-400 682.5,4 -4,4"/>
<!-- Demand -->
<g id="node1" class="node">
<title>Demand</title>
<ellipse fill="none" stroke="#000000" cx="258" cy="-378" rx="40.0939" ry="18"/>
<text text-anchor="middle" x="258" y="-374.3" font-family="Times-Roman" font-size="14.00" fill="#000000">Demand</text>
</g>
<!-- InflexibleDemand -->
<g id="node2" class="node">
<title>InflexibleDemand</title>
<ellipse fill="none" stroke="#000000" cx="178" cy="-306" rx="74.187" ry="18"/>
<text text-anchor="middle" x="178" y="-302.3" font-family="Times-Roman" font-size="14.00" fill="#000000">InflexibleDemand</text>
</g>
<!-- Demand&#45;&gt;InflexibleDemand -->
<g id="edge1" class="edge">
<title>Demand&#45;&gt;InflexibleDemand</title>
<path fill="none" stroke="#000000" d="M239.8468,-361.6621C229.5837,-352.4253 216.5527,-340.6974 205.1012,-330.3911"/>
<polygon fill="#000000" stroke="#000000" points="207.2534,-327.6193 197.4791,-323.5312 202.5707,-332.8224 207.2534,-327.6193"/>
</g>
<!-- FlexibleDemand -->
<g id="node3" class="node">
<title>FlexibleDemand</title>
<ellipse fill="none" stroke="#000000" cx="414" cy="-306" rx="68.7879" ry="18"/>
<text text-anchor="middle" x="414" y="-302.3" font-family="Times-Roman" font-size="14.00" fill="#000000">FlexibleDemand</text>
</g>
<!-- Demand&#45;&gt;FlexibleDemand -->
<g id="edge2" class="edge">
<title>Demand&#45;&gt;FlexibleDemand</title>
<path fill="none" stroke="#000000" d="M286.2504,-364.9613C309.8131,-354.0863 343.7711,-338.4133 370.7541,-325.9596"/>
<polygon fill="#000000" stroke="#000000" points="372.3661,-329.0705 379.979,-321.702 369.4326,-322.7148 372.3661,-329.0705"/>
</g>
<!-- StationaryInflexibleDemand -->
<g id="node4" class="node">
<title>StationaryInflexibleDemand</title>
<polygon fill="none" stroke="#000000" points="188.5,-252 17.5,-252 17.5,-216 188.5,-216 188.5,-252"/>
<text text-anchor="middle" x="103" y="-230.3" font-family="Times-Roman" font-size="14.00" fill="#000000">StationaryInflexibleDemand</text>
</g>
<!-- InflexibleDemand&#45;&gt;StationaryInflexibleDemand -->
<g id="edge3" class="edge">
<title>InflexibleDemand&#45;&gt;StationaryInflexibleDemand</title>
<path fill="none" stroke="#000000" d="M159.4607,-288.2022C150.335,-279.4416 139.1763,-268.7293 129.1961,-259.1482"/>
<polygon fill="#000000" stroke="#000000" points="131.4848,-256.4936 121.847,-252.0931 126.637,-261.5433 131.4848,-256.4936"/>
</g>
<!-- InterruptibleDemand -->
<g id="node5" class="node">
<title>InterruptibleDemand</title>
<polygon fill="none" stroke="#000000" points="341,-252 207,-252 207,-216 341,-216 341,-252"/>
<text text-anchor="middle" x="274" y="-230.3" font-family="Times-Roman" font-size="14.00" fill="#000000">InterruptibleDemand</text>
</g>
<!-- FlexibleDemand&#45;&gt;InterruptibleDemand -->
<g id="edge4" class="edge">
<title>FlexibleDemand&#45;&gt;InterruptibleDemand</title>
<path fill="none" stroke="#000000" d="M382.5813,-289.8418C363.55,-280.0543 338.9855,-267.4211 318.036,-256.6471"/>
<polygon fill="#000000" stroke="#000000" points="319.4963,-253.4624 309.0027,-252.0014 316.2948,-259.6874 319.4963,-253.4624"/>
</g>
<!-- BuildingDemand -->
<g id="node6" class="node">
<title>BuildingDemand</title>
<polygon fill="none" stroke="#000000" points="468.5,-252 359.5,-252 359.5,-216 468.5,-216 468.5,-252"/>
<text text-anchor="middle" x="414" y="-230.3" font-family="Times-Roman" font-size="14.00" fill="#000000">BuildingDemand</text>
</g>
<!-- FlexibleDemand&#45;&gt;BuildingDemand -->
<g id="edge5" class="edge">
<title>FlexibleDemand&#45;&gt;BuildingDemand</title>
<path fill="none" stroke="#000000" d="M414,-287.8314C414,-280.131 414,-270.9743 414,-262.4166"/>
<polygon fill="#000000" stroke="#000000" points="417.5001,-262.4132 414,-252.4133 410.5001,-262.4133 417.5001,-262.4132"/>
</g>
<!-- BevDemand -->
<g id="node7" class="node">
<title>BevDemand</title>
<polygon fill="none" stroke="#000000" points="569.5,-252 486.5,-252 486.5,-216 569.5,-216 569.5,-252"/>
<text text-anchor="middle" x="528" y="-230.3" font-family="Times-Roman" font-size="14.00" fill="#000000">BevDemand</text>
</g>
<!-- FlexibleDemand&#45;&gt;BevDemand -->
<g id="edge6" class="edge">
<title>FlexibleDemand&#45;&gt;BevDemand</title>
<path fill="none" stroke="#000000" d="M440.4404,-289.3008C455.3138,-279.9071 474.1284,-268.0241 490.5019,-257.683"/>
<polygon fill="#000000" stroke="#000000" points="492.7207,-260.4213 499.3066,-252.1222 488.9827,-254.5029 492.7207,-260.4213"/>
</g>
<!-- PhevDemand -->
<g id="node8" class="node">
<title>PhevDemand</title>
<polygon fill="none" stroke="#000000" points="678.5,-252 587.5,-252 587.5,-216 678.5,-216 678.5,-252"/>
<text text-anchor="middle" x="633" y="-230.3" font-family="Times-Roman" font-size="14.00" fill="#000000">PhevDemand</text>
</g>
<!-- FlexibleDemand&#45;&gt;PhevDemand -->
<g id="edge7" class="edge">
<title>FlexibleDemand&#45;&gt;PhevDemand</title>
<path fill="none" stroke="#000000" d="M457.4466,-291.8528C488.5863,-281.6967 531.7785,-267.577 577.7932,-252.3919"/>
<polygon fill="#000000" stroke="#000000" points="578.9425,-255.6984 587.3407,-249.2392 576.7475,-249.0514 578.9425,-255.6984"/>
</g>
<!-- TimeArray -->
<g id="node9" class="node">
<title>TimeArray</title>
<ellipse fill="none" stroke="#000000" cx="274" cy="-162" rx="53.0913" ry="18"/>
<text text-anchor="middle" x="274" y="-158.3" font-family="Times-Roman" font-size="14.00" fill="#000000">TimeArray</text>
</g>
<!-- InterruptibleDemand&#45;&gt;TimeArray -->
<g id="edge13" class="edge">
<title>InterruptibleDemand&#45;&gt;TimeArray</title>
</g>
<!-- Envelope -->
<g id="node10" class="node">
<title>Envelope</title>
<polygon fill="none" stroke="#000000" points="68,-108 0,-108 0,-72 68,-72 68,-108"/>
<text text-anchor="middle" x="34" y="-86.3" font-family="Times-Roman" font-size="14.00" fill="#000000">Envelope</text>
</g>
<!-- TimeArray&#45;&gt;Envelope -->
<g id="edge8" class="edge">
<title>TimeArray&#45;&gt;Envelope</title>
<path fill="none" stroke="#000000" d="M230.3401,-151.5639C190.3179,-141.6226 129.6144,-125.5973 78,-108 77.9024,-107.9667 77.8046,-107.9333 77.7068,-107.8998"/>
<polygon fill="#000000" stroke="#000000" points="79.0336,-104.6579 68.4394,-104.5437 76.65,-111.2396 79.0336,-104.6579"/>
</g>
<!-- LocatedEnvelope -->
<g id="node11" class="node">
<title>LocatedEnvelope</title>
<polygon fill="none" stroke="#000000" points="197.5,-108 86.5,-108 86.5,-72 197.5,-72 197.5,-108"/>
<text text-anchor="middle" x="142" y="-86.3" font-family="Times-Roman" font-size="14.00" fill="#000000">LocatedEnvelope</text>
</g>
<!-- TimeArray&#45;&gt;LocatedEnvelope -->
<g id="edge9" class="edge">
<title>TimeArray&#45;&gt;LocatedEnvelope</title>
<path fill="none" stroke="#000000" d="M245.6827,-146.5542C227.8143,-136.8078 204.4041,-124.0386 184.3507,-113.1004"/>
<polygon fill="#000000" stroke="#000000" points="185.8601,-109.9369 175.4051,-108.221 182.5081,-116.0822 185.8601,-109.9369"/>
</g>
<!-- TemporalDemand -->
<g id="node12" class="node">
<title>TemporalDemand</title>
<polygon fill="none" stroke="#000000" points="332,-108 216,-108 216,-72 332,-72 332,-108"/>
<text text-anchor="middle" x="274" y="-86.3" font-family="Times-Roman" font-size="14.00" fill="#000000">TemporalDemand</text>
</g>
<!-- TimeArray&#45;&gt;TemporalDemand -->
<g id="edge10" class="edge">
<title>TimeArray&#45;&gt;TemporalDemand</title>
<path fill="none" stroke="#000000" d="M274,-143.8314C274,-136.131 274,-126.9743 274,-118.4166"/>
<polygon fill="#000000" stroke="#000000" points="277.5001,-118.4132 274,-108.4133 270.5001,-118.4133 277.5001,-118.4132"/>
</g>
<!-- MobileDemand -->
<g id="node13" class="node">
<title>MobileDemand</title>
<polygon fill="none" stroke="#000000" points="454,-108 350,-108 350,-72 454,-72 454,-108"/>
<text text-anchor="middle" x="402" y="-86.3" font-family="Times-Roman" font-size="14.00" fill="#000000">MobileDemand</text>
</g>
<!-- TimeArray&#45;&gt;MobileDemand -->
<g id="edge11" class="edge">
<title>TimeArray&#45;&gt;MobileDemand</title>
<path fill="none" stroke="#000000" d="M301.4592,-146.5542C318.7081,-136.8517 341.2825,-124.1536 360.6697,-113.2483"/>
<polygon fill="#000000" stroke="#000000" points="362.6073,-116.1742 369.6071,-108.221 359.1754,-110.0731 362.6073,-116.1742"/>
</g>
<!-- LocatedDemand -->
<g id="node14" class="node">
<title>LocatedDemand</title>
<polygon fill="none" stroke="#000000" points="578,-108 472,-108 472,-72 578,-72 578,-108"/>
<text text-anchor="middle" x="525" y="-86.3" font-family="Times-Roman" font-size="14.00" fill="#000000">LocatedDemand</text>
</g>
<!-- TimeArray&#45;&gt;LocatedDemand -->
<g id="edge12" class="edge">
<title>TimeArray&#45;&gt;LocatedDemand</title>
<path fill="none" stroke="#000000" d="M314.938,-150.3577C351.1353,-140.0515 405.6401,-124.5032 462.0908,-108.2567"/>
<polygon fill="#000000" stroke="#000000" points="463.2634,-111.5614 471.9044,-105.4309 461.3264,-104.8347 463.2634,-111.5614"/>
</g>
<!-- DemandResponseConstraint -->
<g id="node15" class="node">
<title>DemandResponseConstraint</title>
<ellipse fill="none" stroke="#000000" cx="274" cy="-18" rx="111.5806" ry="18"/>
<text text-anchor="middle" x="274" y="-14.3" font-family="Times-Roman" font-size="14.00" fill="#000000">DemandResponseConstraint</text>
</g>
<!-- TemporalDemand&#45;&gt;DemandResponseConstraint -->
<g id="edge14" class="edge">
<title>TemporalDemand&#45;&gt;DemandResponseConstraint</title>
</g>
</g>
</svg>
